<?xml version="1.0" encoding="utf-8"?>
<!-- Generator: Adobe Illustrator 16.0.4, SVG Export Plug-In . SVG Version: 6.00 Build 0)  -->
<!DOCTYPE svg PUBLIC "-//W3C//DTD SVG 1.1//EN" "http://www.w3.org/Graphics/SVG/1.1/DTD/svg11.dtd">
<svg version="1.1" id="Layer_1" xmlns="http://www.w3.org/2000/svg" xmlns:xlink="http://www.w3.org/1999/xlink" x="0px" y="0px"
	 width="150.747px" height="140.298px" viewBox="0 0 150.747 140.298" enable-background="new 0 0 150.747 140.298"
	 xml:space="preserve">
<g>
	<path fill="#FFFFFF" d="M82.175,7.111c-14.034,0-25.452,11.731-25.452,26.15c0,2.956,0.477,5.859,1.417,8.627
		c0.129,0.377,0.264,0.746,0.409,1.112c0.012,0.031,0.025,0.062,0.039,0.093c0.6,1.371,1.71,3.356,3.395,6.07
		c4.691,7.55,15.082,17.593,15.522,18.017c0.559,0.538,1.305,0.84,2.081,0.84h5.178c0.776,0,1.521-0.301,2.081-0.839
		c0.44-0.424,10.833-10.467,15.522-18.018c1.676-2.699,2.786-4.683,3.394-6.064c0.019-0.04,0.035-0.081,0.051-0.122
		c0.14-0.358,0.272-0.719,0.397-1.086c0.941-2.771,1.418-5.674,1.418-8.63C107.627,18.842,96.209,7.111,82.175,7.111z
		 M103.37,40.923c-0.111,0.327-0.229,0.648-0.354,0.967c-0.592,1.344-1.761,3.376-3.197,5.69
		C95.274,54.899,84.764,65.02,84.764,65.02h-5.178c0,0-10.508-10.121-15.055-17.439c-1.437-2.314-2.607-4.347-3.195-5.69
		c-0.127-0.319-0.244-0.64-0.355-0.967c-0.814-2.397-1.258-4.976-1.258-7.662c0-12.785,10.053-23.15,22.452-23.15
		s22.452,10.365,22.452,23.15C104.627,35.947,104.184,38.526,103.37,40.923z"/>
	<path fill="#FFFFFF" d="M82.141,73.938c-1.48,0-2.619,1.139-2.619,2.619c0,1.366,1.139,2.505,2.619,2.505
		c1.365,0,2.618-1.139,2.618-2.505C84.759,75.077,83.506,73.938,82.141,73.938z"/>
</g>
<g>
	<path fill="#1A1A1A" d="M51.632,87.373c-0.91,0-1.59,0.8-1.59,1.59v7.631c-3.19-5.811-9.11-9.9-15.94-9.9
		c-10.7,0-18.33,9.56-18.33,19.81c0,10.24,7.63,19.811,18.33,19.811c6.83,0,12.75-4.101,15.94-9.91v7.29c0,0.91,0.68,1.59,1.59,1.59
		c0.91,0,1.6-0.68,1.6-1.59v-34.73C53.231,88.172,52.542,87.373,51.632,87.373z M34.102,123.123c-8.88,0-15.14-8.08-15.14-16.62
		s6.26-16.63,15.14-16.63c8.99,0,15.14,8.09,15.14,16.63S43.092,123.123,34.102,123.123z"/>
	<path fill="#1A1A1A" d="M82.141,87.714c-0.91,0-1.594,0.797-1.594,1.594v34.61c0,0.797,0.684,1.594,1.594,1.594
		c0.797,0,1.594-0.797,1.594-1.594v-34.61C83.735,88.511,82.938,87.714,82.141,87.714z"/>
	<path fill="#1A1A1A" d="M128.249,87.487c-5.465,0-10.701,4.213-13.32,8.652v-7.059c0-0.911-0.683-1.594-1.594-1.594
		c-0.91,0-1.594,0.683-1.594,1.594v34.725c0,0.91,0.684,1.594,1.594,1.594c0.911,0,1.594-0.684,1.594-1.594v-15.256
		c0-8.881,4.213-16.509,13.549-17.875c0.91-0.113,1.479-0.683,1.479-1.707C129.957,88.056,129.045,87.487,128.249,87.487z"/>
</g>
</svg>
