<?xml version="1.0" encoding="UTF-8" standalone="no"?>
<svg width="220px" height="36px" viewBox="0 0 220 36" version="1.1" xmlns="http://www.w3.org/2000/svg" xmlns:xlink="http://www.w3.org/1999/xlink" xmlns:sketch="http://www.bohemiancoding.com/sketch/ns">
    <!-- Generator: Sketch 3.5.1 (25234) - http://www.bohemiancoding.com/sketch -->
    <title>howitworks</title>
    <desc>Created with Sketch.</desc>
    <defs></defs>
    <g id="Page-1" stroke="none" stroke-width="1" fill="none" fill-rule="evenodd" sketch:type="MSPage">
        <g id="howitworks" sketch:type="MSLayerGroup" transform="translate(-9.000000, -4.000000)" fill="#FFFFFF">
            <path d="M49.1726562,17.3630184 C49.0926558,17.4630189 48.9476573,17.5380181 48.7376562,17.5880184 C48.5276552,17.6380186 48.3126573,17.5830192 48.0926562,17.4230184 C47.9326554,17.3030178 47.7426573,17.178019 47.5226562,17.0480184 C47.3026551,16.9180177 47.0626575,16.793019 46.8026562,16.6730184 C46.5426549,16.5530178 46.2826575,16.4530188 46.0226562,16.3730184 C45.7626549,16.293018 45.5126574,16.2530184 45.2726562,16.2530184 C44.9726547,16.2530184 44.6576579,16.3230177 44.3276562,16.4630184 C43.9976546,16.6030191 43.7126574,16.8030171 43.4726562,17.0630184 C43.0126539,17.5630209 42.8476556,18.048016 42.9776562,18.5180184 C43.1076569,18.9880207 43.4526534,19.4230164 44.0126562,19.8230184 C44.372658,20.0830197 44.7626541,20.348017 45.1826562,20.6180184 C45.6026583,20.8880197 46.0176542,21.1530171 46.4276562,21.4130184 C46.8376583,21.6730197 47.2276544,21.9230172 47.5976562,22.1630184 C47.9676581,22.4030196 48.2926548,22.6130175 48.5726562,22.7930184 C48.932658,23.0330196 49.2726546,23.293017 49.5926562,23.5730184 C49.9126578,23.8530198 50.192655,24.1680166 50.4326562,24.5180184 C50.6726574,24.8680201 50.8626555,25.2630162 51.0026562,25.7030184 C51.1426569,26.1430206 51.2126562,26.6430156 51.2126562,27.2030184 C51.0726555,28.3030239 50.6376599,29.1780151 49.9076562,29.8280184 C49.1776526,30.4780216 48.332661,30.8930175 47.3726562,31.0730184 C46.532652,31.2330192 45.7076603,31.2030195 44.8976562,30.9830184 C44.0876522,30.7630173 43.402659,30.3430215 42.8426562,29.7230184 C42.7026555,29.5630176 42.5826567,29.3430198 42.4826562,29.0630184 C42.3826557,28.783017 42.3726558,28.583019 42.4526562,28.4630184 C42.5726568,28.2830175 42.7826547,28.1580187 43.0826562,28.0880184 C43.3826577,28.018018 43.6126554,28.0330179 43.7726562,28.1330184 C44.2326585,28.5530205 44.7726531,28.8580174 45.3926562,29.0480184 C46.0126593,29.2380193 46.6626528,29.2530192 47.3426562,29.0930184 C47.8626588,28.9730178 48.2826546,28.74802 48.6026562,28.4180184 C48.9226578,28.0880167 49.1226558,27.7130205 49.2026562,27.2930184 C49.3026567,26.8530162 49.2476573,26.3980207 49.0376562,25.9280184 C48.8276552,25.458016 48.4526589,25.0330203 47.9126562,24.6530184 C47.0926521,24.0330153 46.2176609,23.4530211 45.2876562,22.9130184 C44.3576516,22.3730157 43.412661,21.7530219 42.4526562,21.0530184 C41.9926539,20.6530164 41.6576573,20.2130208 41.4476562,19.7330184 C41.2376552,19.253016 41.1326562,18.7830207 41.1326562,18.3230184 C41.1326562,17.843016 41.2326552,17.3880205 41.4326562,16.9580184 C41.6326572,16.5280162 41.9126544,16.1380201 42.2726562,15.7880184 C42.632658,15.4380166 43.0526538,15.1530195 43.5326562,14.9330184 C44.0126586,14.7130173 44.5426533,14.5830186 45.1226562,14.5430184 C45.9226602,14.5030182 46.6926525,14.6680165 47.4326562,15.0380184 C48.1726599,15.4080202 48.7726539,15.8630157 49.2326562,16.4030184 C49.3326567,16.523019 49.3776563,16.6730175 49.3676562,16.8530184 C49.3576562,17.0330193 49.2926568,17.2030176 49.1726562,17.3630184 L49.1726562,17.3630184 Z M60.5426562,23.0930184 C59.7626523,23.5530207 58.9226607,23.9080171 58.0226562,24.1580184 C57.1226517,24.4080196 56.1526614,24.5330184 55.1126562,24.5330184 C55.1526564,25.2330219 55.3526544,25.7880163 55.7126562,26.1980184 C56.072658,26.6080204 56.5226535,26.853018 57.0626562,26.9330184 C57.3826578,26.9730186 57.7076546,26.9630187 58.0376562,26.9030184 C58.3676579,26.8430181 58.6776548,26.748019 58.9676562,26.6180184 C59.2576577,26.4880177 59.522655,26.3430192 59.7626562,26.1830184 C60.0026574,26.0230176 60.2126553,25.8630192 60.3926562,25.7030184 C60.5726571,25.5430176 60.7626552,25.4380186 60.9626562,25.3880184 C61.1626572,25.3380181 61.3126557,25.3330182 61.4126562,25.3730184 C61.6926576,25.4730189 61.7926566,25.7730159 61.7126562,26.2730184 C61.3926546,26.9130216 60.9326592,27.4580161 60.3326562,27.9080184 C59.7326532,28.3580206 59.0626599,28.6430178 58.3226562,28.7630184 C57.682653,28.883019 57.0226596,28.8530193 56.3426562,28.6730184 C55.6626528,28.4930175 55.0526589,28.143021 54.5126562,27.6230184 C54.0526539,27.1630161 53.7026574,26.6230215 53.4626562,26.0030184 C53.222655,25.3830153 53.0726565,24.7430217 53.0126562,24.0830184 C52.9526559,23.4630153 53.0076554,22.8730212 53.1776562,22.3130184 C53.3476571,21.7530156 53.6126544,21.2580205 53.9726562,20.8280184 C54.332658,20.3980162 54.7826535,20.0430198 55.3226562,19.7630184 C55.8626589,19.483017 56.4926526,19.3230186 57.2126562,19.2830184 C58.0726605,19.2230181 58.8526527,19.3830165 59.5526562,19.7630184 C60.2526597,20.1430203 60.7426548,20.673015 61.0226562,21.3530184 C61.182657,21.7330203 61.2276566,22.063017 61.1576562,22.3430184 C61.0876559,22.6230198 60.8826579,22.8730173 60.5426562,23.0930184 L60.5426562,23.0930184 Z M57.0926562,21.0530184 C56.8926552,21.0930186 56.6776574,21.1630179 56.4476562,21.2630184 C56.2176551,21.3630189 56.0076572,21.4880176 55.8176562,21.6380184 C55.6276553,21.7880191 55.457657,21.9580174 55.3076562,22.1480184 C55.1576555,22.3380193 55.0726563,22.5530172 55.0526562,22.7930184 C55.3926579,22.7930184 55.7676542,22.7630187 56.1776562,22.7030184 C56.5876583,22.6430181 56.9876543,22.5680188 57.3776562,22.4780184 C57.7676582,22.3880179 58.1276546,22.283019 58.4576562,22.1630184 C58.7876579,22.0430178 59.0626551,21.9130191 59.2826562,21.7730184 C59.1226554,21.3930165 58.8276584,21.1580188 58.3976562,21.0680184 C57.9676541,20.9780179 57.5326584,20.973018 57.0926562,21.0530184 L57.0926562,21.0530184 Z M71.0726562,23.0930184 C70.2926523,23.5530207 69.4526607,23.9080171 68.5526562,24.1580184 C67.6526517,24.4080196 66.6826614,24.5330184 65.6426562,24.5330184 C65.6826564,25.2330219 65.8826544,25.7880163 66.2426562,26.1980184 C66.602658,26.6080204 67.0526535,26.853018 67.5926562,26.9330184 C67.9126578,26.9730186 68.2376546,26.9630187 68.5676562,26.9030184 C68.8976579,26.8430181 69.2076548,26.748019 69.4976562,26.6180184 C69.7876577,26.4880177 70.052655,26.3430192 70.2926562,26.1830184 C70.5326574,26.0230176 70.7426553,25.8630192 70.9226562,25.7030184 C71.1026571,25.5430176 71.2926552,25.4380186 71.4926562,25.3880184 C71.6926572,25.3380181 71.8426557,25.3330182 71.9426562,25.3730184 C72.2226576,25.4730189 72.3226566,25.7730159 72.2426562,26.2730184 C71.9226546,26.9130216 71.4626592,27.4580161 70.8626562,27.9080184 C70.2626532,28.3580206 69.5926599,28.6430178 68.8526562,28.7630184 C68.212653,28.883019 67.5526596,28.8530193 66.8726562,28.6730184 C66.1926528,28.4930175 65.5826589,28.143021 65.0426562,27.6230184 C64.5826539,27.1630161 64.2326574,26.6230215 63.9926562,26.0030184 C63.752655,25.3830153 63.6026565,24.7430217 63.5426562,24.0830184 C63.4826559,23.4630153 63.5376554,22.8730212 63.7076562,22.3130184 C63.8776571,21.7530156 64.1426544,21.2580205 64.5026562,20.8280184 C64.862658,20.3980162 65.3126535,20.0430198 65.8526562,19.7630184 C66.3926589,19.483017 67.0226526,19.3230186 67.7426562,19.2830184 C68.6026605,19.2230181 69.3826527,19.3830165 70.0826562,19.7630184 C70.7826597,20.1430203 71.2726548,20.673015 71.5526562,21.3530184 C71.712657,21.7330203 71.7576566,22.063017 71.6876562,22.3430184 C71.6176559,22.6230198 71.4126579,22.8730173 71.0726562,23.0930184 L71.0726562,23.0930184 Z M67.6226562,21.0530184 C67.4226552,21.0930186 67.2076574,21.1630179 66.9776562,21.2630184 C66.7476551,21.3630189 66.5376572,21.4880176 66.3476562,21.6380184 C66.1576553,21.7880191 65.987657,21.9580174 65.8376562,22.1480184 C65.6876555,22.3380193 65.6026563,22.5530172 65.5826562,22.7930184 C65.9226579,22.7930184 66.2976542,22.7630187 66.7076562,22.7030184 C67.1176583,22.6430181 67.5176543,22.5680188 67.9076562,22.4780184 C68.2976582,22.3880179 68.6576546,22.283019 68.9876562,22.1630184 C69.3176579,22.0430178 69.5926551,21.9130191 69.8126562,21.7730184 C69.6526554,21.3930165 69.3576584,21.1580188 68.9276562,21.0680184 C68.4976541,20.9780179 68.0626584,20.973018 67.6226562,21.0530184 L67.6226562,21.0530184 Z M84.8426562,16.8530184 C84.8426562,17.3330208 84.8376563,17.8730154 84.8276562,18.4730184 C84.8176562,19.0730214 84.8176562,19.6930152 84.8276562,20.3330184 C84.8376563,20.9730216 84.8476562,21.633015 84.8576562,22.3130184 C84.8676563,22.9930218 84.8826561,23.6430153 84.9026562,24.2630184 C85.1026572,23.8630164 85.3426548,23.4680203 85.6226562,23.0780184 C85.9026576,22.6880164 86.2176545,22.3430199 86.5676562,22.0430184 C86.917658,21.7430169 87.2876543,21.5030193 87.6776562,21.3230184 C88.0676582,21.1430175 88.4926539,21.0530184 88.9526562,21.0530184 C89.4526587,21.0530184 89.8976543,21.2130168 90.2876562,21.5330184 C90.6776582,21.85302 91.0176548,22.2780157 91.3076562,22.8080184 C91.5976577,23.338021 91.8426552,23.9280151 92.0426562,24.5780184 C92.2426572,25.2280216 92.4076556,25.888015 92.5376562,26.5580184 C92.6676569,27.2280217 92.7626559,27.8680153 92.8226562,28.4780184 C92.8826565,29.0880214 92.932656,29.6130162 92.9726562,30.0530184 C92.9726562,30.37302 92.892657,30.6330174 92.7326562,30.8330184 C92.5726554,31.0330194 92.3826573,31.1330184 92.1626562,31.1330184 C92.0026554,31.1330184 91.8076574,31.0280194 91.5776562,30.8180184 C91.3476551,30.6080173 91.1826567,30.3530199 91.0826562,30.0530184 C91.0226559,29.8130172 90.9626565,29.4630207 90.9026562,29.0030184 C90.8426559,28.5430161 90.7726566,28.048021 90.6926562,27.5180184 C90.6126558,26.9880157 90.5126568,26.4530211 90.3926562,25.9130184 C90.2726556,25.3730157 90.1276571,24.8880205 89.9576562,24.4580184 C89.7876554,24.0280162 89.5826574,23.6930196 89.3426562,23.4530184 C89.102655,23.2130172 88.8226578,23.1230181 88.5026562,23.1830184 C88.0026537,23.2830189 87.5676581,23.6330154 87.1976562,24.2330184 C86.8276544,24.8330214 86.5076576,25.5130146 86.2376562,26.2730184 C85.9676549,27.0330222 85.7476571,27.8030145 85.5776562,28.5830184 C85.4076554,29.3630223 85.2826566,29.993016 85.2026562,30.4730184 C85.1226558,30.8330202 85.0176569,31.0780177 84.8876562,31.2080184 C84.7576556,31.338019 84.612657,31.4030184 84.4526562,31.4030184 C84.2926554,31.4030184 84.1476569,31.3230192 84.0176562,31.1630184 C83.8876556,31.0030176 83.7676568,30.8080195 83.6576562,30.5780184 C83.5476557,30.3480172 83.4526566,30.1080196 83.3726562,29.8580184 C83.2926558,29.6080171 83.2426563,29.3930193 83.2226562,29.2130184 C83.1226557,28.133013 83.0426565,27.0980233 82.9826562,26.1080184 C82.9226559,25.1180134 82.8776564,24.1230234 82.8476562,23.1230184 C82.8176561,22.1230134 82.8026562,21.0980236 82.8026562,20.0480184 C82.8026562,18.9980131 82.822656,17.8730244 82.8626562,16.6730184 C82.8626562,15.6730134 83.2226526,15.2230179 83.9426562,15.3230184 C84.1826574,15.3630186 84.3926553,15.5380168 84.5726562,15.8480184 C84.7526571,16.1580199 84.8426562,16.4930166 84.8426562,16.8530184 L84.8426562,16.8530184 Z M102.032656,19.6730184 C102.632659,19.8930195 103.137654,20.2230162 103.547656,20.6630184 C103.957658,21.1030206 104.272655,21.5980156 104.492656,22.1480184 C104.712657,22.6980211 104.837656,23.2630155 104.867656,23.8430184 C104.897656,24.4230213 104.832657,24.9630159 104.672656,25.4630184 C104.452655,26.0230212 104.172658,26.5730157 103.832656,27.1130184 C103.492655,27.6530211 103.102658,28.1330163 102.662656,28.5530184 C102.222654,28.9730205 101.722659,29.3130171 101.162656,29.5730184 C100.602653,29.8330197 99.9826596,29.9630184 99.3026562,29.9630184 C98.4826521,29.9630184 97.792659,29.7730203 97.2326562,29.3930184 C96.6726534,29.0130165 96.2326578,28.5230214 95.9126562,27.9230184 C95.5926546,27.3230154 95.3876567,26.6430222 95.2976562,25.8830184 C95.2076558,25.1230146 95.2226556,24.3630222 95.3426562,23.6030184 C95.4226566,23.0430156 95.5576553,22.498021 95.7476562,21.9680184 C95.9376572,21.4380157 96.1826547,20.9680204 96.4826562,20.5580184 C96.7826577,20.1480163 97.1276543,19.8130197 97.5176562,19.5530184 C97.9076582,19.2930171 98.3526537,19.1630184 98.8526562,19.1630184 C99.1326576,19.1630184 99.4826541,19.2180178 99.9026562,19.3280184 C100.322658,19.4380189 100.712654,19.5930174 101.072656,19.7930184 C101.332658,19.5530172 101.652654,19.5130176 102.032656,19.6730184 L102.032656,19.6730184 Z M100.892656,21.8630184 C100.672655,21.7230177 100.417658,21.5380195 100.127656,21.3080184 C99.8376548,21.0780172 99.5826573,20.9630184 99.3626562,20.9630184 C99.122655,20.9630184 98.8876574,21.0730173 98.6576562,21.2930184 C98.4276551,21.5130195 98.2276571,21.7680169 98.0576562,22.0580184 C97.8876554,22.3480198 97.7426568,22.6430169 97.6226562,22.9430184 C97.5026556,23.2430199 97.4226564,23.4830175 97.3826562,23.6630184 C97.3226559,23.9630199 97.2826563,24.3230163 97.2626562,24.7430184 C97.2426561,25.1630205 97.2726558,25.5780163 97.3526562,25.9880184 C97.4326566,26.3980204 97.5876551,26.7680167 97.8176562,27.0980184 C98.0476574,27.42802 98.3926539,27.6630177 98.8526562,27.8030184 C99.1326576,27.8830188 99.4626543,27.8780188 99.8426562,27.7880184 C100.222658,27.6980179 100.597654,27.5330196 100.967656,27.2930184 C101.337658,27.0530172 101.687655,26.7330204 102.017656,26.3330184 C102.347658,25.9330164 102.602655,25.473021 102.782656,24.9530184 C102.982657,24.3730155 102.987657,23.7680215 102.797656,23.1380184 C102.607655,22.5080152 102.222659,22.0530198 101.642656,21.7730184 C101.502656,21.8730189 101.362657,21.9230184 101.222656,21.9230184 C101.082656,21.9230184 100.972657,21.9030186 100.892656,21.8630184 L100.892656,21.8630184 Z M117.932656,29.4530184 C117.772655,29.6730195 117.592657,29.818018 117.392656,29.8880184 C117.192655,29.9580187 117.012657,29.9930184 116.852656,29.9930184 C116.572655,29.9730183 116.312657,29.8780192 116.072656,29.7080184 C115.832655,29.5380175 115.682657,29.3630193 115.622656,29.1830184 C115.502656,28.8430167 115.372657,28.4630205 115.232656,28.0430184 C115.092656,27.6230163 114.957657,27.1980205 114.827656,26.7680184 C114.697656,26.3380162 114.562657,25.9180204 114.422656,25.5080184 C114.282656,25.0980163 114.152657,24.7230201 114.032656,24.3830184 C113.632654,25.0830219 113.252658,25.7880148 112.892656,26.4980184 C112.532654,27.2080219 112.132658,27.9430146 111.692656,28.7030184 C111.492655,29.0030199 111.262658,29.2080178 111.002656,29.3180184 C110.742655,29.4280189 110.522657,29.4730185 110.342656,29.4530184 C110.082655,29.4330183 109.847657,29.3330193 109.637656,29.1530184 C109.427655,28.9730175 109.262657,28.8030192 109.142656,28.6430184 C108.922655,28.2830166 108.702657,27.8180212 108.482656,27.2480184 C108.262655,26.6780155 108.057657,26.0780215 107.867656,25.4480184 C107.677655,24.8180152 107.502657,24.1880215 107.342656,23.5580184 C107.182655,22.9280152 107.052657,22.3630209 106.952656,21.8630184 C106.892656,21.5230167 106.897656,21.2030199 106.967656,20.9030184 C107.037657,20.6030169 107.212655,20.4330186 107.492656,20.3930184 C107.832658,20.3730183 108.142655,20.4880171 108.422656,20.7380184 C108.702658,20.9880196 108.862656,21.2330172 108.902656,21.4730184 C108.982657,21.8730204 109.077656,22.308016 109.187656,22.7780184 C109.297657,23.2480207 109.417656,23.723016 109.547656,24.2030184 C109.677657,24.6830208 109.807656,25.1530161 109.937656,25.6130184 C110.067657,26.0730207 110.202656,26.4830166 110.342656,26.8430184 C110.642658,26.363016 110.977654,25.8080215 111.347656,25.1780184 C111.717658,24.5480152 112.072655,23.9380213 112.412656,23.3480184 C112.752658,22.7580154 113.062655,22.2430206 113.342656,21.8030184 C113.622658,21.3630162 113.842655,21.0930189 114.002656,20.9930184 C114.122657,20.913018 114.292655,20.9180179 114.512656,21.0080184 C114.732657,21.0980188 114.892656,21.2230176 114.992656,21.3830184 C115.432658,22.2630228 115.797655,23.2280131 116.087656,24.2780184 C116.377658,25.3280236 116.662655,26.3030139 116.942656,27.2030184 C117.222658,26.8430166 117.522655,26.3680213 117.842656,25.7780184 C118.162658,25.1880154 118.472655,24.5630217 118.772656,23.9030184 C119.072658,23.2430151 119.352655,22.5830217 119.612656,21.9230184 C119.872658,21.2630151 120.082655,20.673021 120.242656,20.1530184 C120.402657,19.6130157 120.622655,19.3530183 120.902656,19.3730184 C121.262658,19.4130186 121.572655,19.5330174 121.832656,19.7330184 C122.092658,19.9330194 122.192657,20.1430173 122.132656,20.3630184 C121.692654,22.1230272 121.12266,23.738011 120.422656,25.2080184 C119.722653,26.6780257 118.892661,28.0930116 117.932656,29.4530184 L117.932656,29.4530184 Z M137.732656,17.9030184 C137.692656,18.1030194 137.552657,18.2130183 137.312656,18.2330184 C137.072655,18.2530185 136.872657,18.2630184 136.712656,18.2630184 C136.212654,18.2830185 135.697659,18.333018 135.167656,18.4130184 C134.637654,18.4930188 134.082659,18.6130176 133.502656,18.7730184 C133.262655,18.8530188 133.002658,18.8230191 132.722656,18.6830184 C132.442655,18.5430177 132.272657,18.2630205 132.212656,17.8430184 C132.212656,17.6830176 132.272656,17.5530189 132.392656,17.4530184 C132.512657,17.3530179 132.652655,17.2630188 132.812656,17.1830184 C133.072658,17.0630178 133.382654,16.9580188 133.742656,16.8680184 C134.102658,16.7780179 134.467654,16.7130186 134.837656,16.6730184 C135.207658,16.6330182 135.562655,16.6180183 135.902656,16.6280184 C136.242658,16.6380184 136.522655,16.6730181 136.742656,16.7330184 C137.062658,16.8330189 137.317655,16.9830174 137.507656,17.1830184 C137.697657,17.3830194 137.772656,17.623017 137.732656,17.9030184 L137.732656,17.9030184 Z M137.042656,27.8930184 C137.182657,28.21302 137.257656,28.5580165 137.267656,28.9280184 C137.277656,29.2980202 137.172657,29.5530177 136.952656,29.6930184 C136.672655,29.8730193 136.372658,29.8630194 136.052656,29.6630184 C135.732655,29.4630174 135.492657,29.1930201 135.332656,28.8530184 C135.112655,28.4330163 134.942657,27.9180214 134.822656,27.3080184 C134.702656,26.6980153 134.612657,26.0930214 134.552656,25.4930184 C134.492656,24.8930154 134.457656,24.333021 134.447656,23.8130184 C134.437656,23.2930158 134.432656,22.9030197 134.432656,22.6430184 C134.452656,22.363017 134.532656,22.1030196 134.672656,21.8630184 C134.812657,21.6230172 134.992655,21.4830186 135.212656,21.4430184 C135.572658,21.4630185 135.862655,21.6280168 136.082656,21.9380184 C136.302657,22.2480199 136.402656,22.6330161 136.382656,23.0930184 C136.382656,23.4530202 136.392656,23.8530162 136.412656,24.2930184 C136.432656,24.7330206 136.472656,25.1730162 136.532656,25.6130184 C136.592657,26.0530206 136.662656,26.4780163 136.742656,26.8880184 C136.822657,27.2980204 136.922656,27.6330171 137.042656,27.8930184 L137.042656,27.8930184 Z M146.762656,22.1030184 C147.142658,22.0830183 147.522654,22.1730174 147.902656,22.3730184 C148.282658,22.5730194 148.472656,22.8830163 148.472656,23.3030184 C148.432656,23.6430201 148.247658,23.8580179 147.917656,23.9480184 C147.587655,24.0380188 147.322657,24.0830184 147.122656,24.0830184 C146.722654,24.0830184 146.292659,24.0930183 145.832656,24.1130184 C145.372654,24.1330185 144.902659,24.1630182 144.422656,24.2030184 C144.382656,24.8630217 144.347656,25.4830155 144.317656,26.0630184 C144.287656,26.6430213 144.262656,27.1580161 144.242656,27.6080184 C144.222656,28.0580206 144.212656,28.423017 144.212656,28.7030184 C144.212656,28.9830198 144.222656,29.1330183 144.242656,29.1530184 C144.682658,29.073018 145.157654,28.9380193 145.667656,28.7480184 C146.177659,28.5580174 146.687654,28.3480195 147.197656,28.1180184 C147.707659,27.8880172 148.207654,27.6480196 148.697656,27.3980184 C149.187659,27.1480171 149.652654,26.9130195 150.092656,26.6930184 C150.292657,26.5930179 150.477655,26.5630182 150.647656,26.6030184 C150.817657,26.6430186 150.922656,26.7330177 150.962656,26.8730184 C151.002656,27.0930195 150.972657,27.3630168 150.872656,27.6830184 C150.772656,28.00302 150.592658,28.2930171 150.332656,28.5530184 C150.032655,28.7930196 149.637659,29.0680168 149.147656,29.3780184 C148.657654,29.6880199 148.132659,29.983017 147.572656,30.2630184 C147.012653,30.5430198 146.447659,30.7880173 145.877656,30.9980184 C145.307653,31.2080194 144.802658,31.3330182 144.362656,31.3730184 C143.702653,31.4330187 143.202658,31.2530205 142.862656,30.8330184 C142.522655,30.4130163 142.332656,29.8830216 142.292656,29.2430184 C142.252656,28.6030152 142.247656,27.8630226 142.277656,27.0230184 C142.307656,26.1830142 142.342656,25.2930231 142.382656,24.3530184 C142.002654,24.3930186 141.637658,24.4280182 141.287656,24.4580184 C140.937654,24.4880185 140.602658,24.5230182 140.282656,24.5630184 C140.022655,24.5630184 139.737658,24.503019 139.427656,24.3830184 C139.117655,24.2630178 138.962656,24.0330201 138.962656,23.6930184 C138.962656,23.5730178 139.012656,23.4130194 139.112656,23.2130184 C139.212657,23.0130174 139.432655,22.8630189 139.772656,22.7630184 C140.59266,22.6230177 141.502651,22.5030189 142.502656,22.4030184 C142.562657,21.4630137 142.632656,20.5530228 142.712656,19.6730184 C142.792657,18.793014 142.862656,17.993022 142.922656,17.2730184 C142.942656,17.0330172 143.012656,16.8230193 143.132656,16.6430184 C143.252657,16.4630175 143.382656,16.3730184 143.522656,16.3730184 C143.862658,16.3530183 144.187655,16.4380174 144.497656,16.6280184 C144.807658,16.8180193 144.962656,17.0330172 144.962656,17.2730184 C144.882656,17.9530218 144.807657,18.7230141 144.737656,19.5830184 C144.667656,20.4430227 144.602657,21.3230139 144.542656,22.2230184 C144.942658,22.1830182 145.327654,22.1580184 145.697656,22.1480184 C146.067658,22.1380183 146.422655,22.1230185 146.762656,22.1030184 L146.762656,22.1030184 Z M171.272656,29.4530184 C171.112655,29.6730195 170.932657,29.818018 170.732656,29.8880184 C170.532655,29.9580187 170.352657,29.9930184 170.192656,29.9930184 C169.912655,29.9730183 169.652657,29.8780192 169.412656,29.7080184 C169.172655,29.5380175 169.022657,29.3630193 168.962656,29.1830184 C168.842656,28.8430167 168.712657,28.4630205 168.572656,28.0430184 C168.432656,27.6230163 168.297657,27.1980205 168.167656,26.7680184 C168.037656,26.3380162 167.902657,25.9180204 167.762656,25.5080184 C167.622656,25.0980163 167.492657,24.7230201 167.372656,24.3830184 C166.972654,25.0830219 166.592658,25.7880148 166.232656,26.4980184 C165.872654,27.2080219 165.472658,27.9430146 165.032656,28.7030184 C164.832655,29.0030199 164.602658,29.2080178 164.342656,29.3180184 C164.082655,29.4280189 163.862657,29.4730185 163.682656,29.4530184 C163.422655,29.4330183 163.187657,29.3330193 162.977656,29.1530184 C162.767655,28.9730175 162.602657,28.8030192 162.482656,28.6430184 C162.262655,28.2830166 162.042657,27.8180212 161.822656,27.2480184 C161.602655,26.6780155 161.397657,26.0780215 161.207656,25.4480184 C161.017655,24.8180152 160.842657,24.1880215 160.682656,23.5580184 C160.522655,22.9280152 160.392657,22.3630209 160.292656,21.8630184 C160.232656,21.5230167 160.237656,21.2030199 160.307656,20.9030184 C160.377657,20.6030169 160.552655,20.4330186 160.832656,20.3930184 C161.172658,20.3730183 161.482655,20.4880171 161.762656,20.7380184 C162.042658,20.9880196 162.202656,21.2330172 162.242656,21.4730184 C162.322657,21.8730204 162.417656,22.308016 162.527656,22.7780184 C162.637657,23.2480207 162.757656,23.723016 162.887656,24.2030184 C163.017657,24.6830208 163.147656,25.1530161 163.277656,25.6130184 C163.407657,26.0730207 163.542656,26.4830166 163.682656,26.8430184 C163.982658,26.363016 164.317654,25.8080215 164.687656,25.1780184 C165.057658,24.5480152 165.412655,23.9380213 165.752656,23.3480184 C166.092658,22.7580154 166.402655,22.2430206 166.682656,21.8030184 C166.962658,21.3630162 167.182655,21.0930189 167.342656,20.9930184 C167.462657,20.913018 167.632655,20.9180179 167.852656,21.0080184 C168.072657,21.0980188 168.232656,21.2230176 168.332656,21.3830184 C168.772658,22.2630228 169.137655,23.2280131 169.427656,24.2780184 C169.717658,25.3280236 170.002655,26.3030139 170.282656,27.2030184 C170.562658,26.8430166 170.862655,26.3680213 171.182656,25.7780184 C171.502658,25.1880154 171.812655,24.5630217 172.112656,23.9030184 C172.412658,23.2430151 172.692655,22.5830217 172.952656,21.9230184 C173.212658,21.2630151 173.422655,20.673021 173.582656,20.1530184 C173.742657,19.6130157 173.962655,19.3530183 174.242656,19.3730184 C174.602658,19.4130186 174.912655,19.5330174 175.172656,19.7330184 C175.432658,19.9330194 175.532657,20.1430173 175.472656,20.3630184 C175.032654,22.1230272 174.46266,23.738011 173.762656,25.2080184 C173.062653,26.6780257 172.232661,28.0930116 171.272656,29.4530184 L171.272656,29.4530184 Z M184.532656,19.6730184 C185.132659,19.8930195 185.637654,20.2230162 186.047656,20.6630184 C186.457658,21.1030206 186.772655,21.5980156 186.992656,22.1480184 C187.212657,22.6980211 187.337656,23.2630155 187.367656,23.8430184 C187.397656,24.4230213 187.332657,24.9630159 187.172656,25.4630184 C186.952655,26.0230212 186.672658,26.5730157 186.332656,27.1130184 C185.992655,27.6530211 185.602658,28.1330163 185.162656,28.5530184 C184.722654,28.9730205 184.222659,29.3130171 183.662656,29.5730184 C183.102653,29.8330197 182.48266,29.9630184 181.802656,29.9630184 C180.982652,29.9630184 180.292659,29.7730203 179.732656,29.3930184 C179.172653,29.0130165 178.732658,28.5230214 178.412656,27.9230184 C178.092655,27.3230154 177.887657,26.6430222 177.797656,25.8830184 C177.707656,25.1230146 177.722656,24.3630222 177.842656,23.6030184 C177.922657,23.0430156 178.057655,22.498021 178.247656,21.9680184 C178.437657,21.4380157 178.682655,20.9680204 178.982656,20.5580184 C179.282658,20.1480163 179.627654,19.8130197 180.017656,19.5530184 C180.407658,19.2930171 180.852654,19.1630184 181.352656,19.1630184 C181.632658,19.1630184 181.982654,19.2180178 182.402656,19.3280184 C182.822658,19.4380189 183.212654,19.5930174 183.572656,19.7930184 C183.832658,19.5530172 184.152654,19.5130176 184.532656,19.6730184 L184.532656,19.6730184 Z M183.392656,21.8630184 C183.172655,21.7230177 182.917658,21.5380195 182.627656,21.3080184 C182.337655,21.0780172 182.082657,20.9630184 181.862656,20.9630184 C181.622655,20.9630184 181.387657,21.0730173 181.157656,21.2930184 C180.927655,21.5130195 180.727657,21.7680169 180.557656,22.0580184 C180.387655,22.3480198 180.242657,22.6430169 180.122656,22.9430184 C180.002656,23.2430199 179.922656,23.4830175 179.882656,23.6630184 C179.822656,23.9630199 179.782656,24.3230163 179.762656,24.7430184 C179.742656,25.1630205 179.772656,25.5780163 179.852656,25.9880184 C179.932657,26.3980204 180.087655,26.7680167 180.317656,27.0980184 C180.547657,27.42802 180.892654,27.6630177 181.352656,27.8030184 C181.632658,27.8830188 181.962654,27.8780188 182.342656,27.7880184 C182.722658,27.6980179 183.097654,27.5330196 183.467656,27.2930184 C183.837658,27.0530172 184.187655,26.7330204 184.517656,26.3330184 C184.847658,25.9330164 185.102655,25.473021 185.282656,24.9530184 C185.482657,24.3730155 185.487657,23.7680215 185.297656,23.1380184 C185.107655,22.5080152 184.722659,22.0530198 184.142656,21.7730184 C184.002656,21.8730189 183.862657,21.9230184 183.722656,21.9230184 C183.582656,21.9230184 183.472657,21.9030186 183.392656,21.8630184 L183.392656,21.8630184 Z M198.722656,19.7930184 C198.362654,19.9930194 197.987658,20.2030173 197.597656,20.4230184 C197.207654,20.6430195 196.817658,20.8980169 196.427656,21.1880184 C196.037654,21.4780198 195.667658,21.8180164 195.317656,22.2080184 C194.967654,22.5980203 194.652658,23.0630157 194.372656,23.6030184 C193.972654,24.3630222 193.702657,25.1380144 193.562656,25.9280184 C193.422656,26.7180223 193.332656,27.4930146 193.292656,28.2530184 C193.292656,28.6130202 193.207657,28.9780165 193.037656,29.3480184 C192.867655,29.7180202 192.632658,29.9030184 192.332656,29.9030184 C191.952654,29.9030184 191.647657,29.7080203 191.417656,29.3180184 C191.187655,28.9280164 191.032657,28.5530202 190.952656,28.1930184 C190.612655,26.7730113 190.332657,25.3680253 190.112656,23.9780184 C189.892655,22.5880114 189.702657,21.2030253 189.542656,19.8230184 C189.542656,19.543017 189.627655,19.3630188 189.797656,19.2830184 C189.967657,19.203018 190.162655,19.1730183 190.382656,19.1930184 C190.622657,19.2130185 190.852655,19.2730179 191.072656,19.3730184 C191.292657,19.4730189 191.422656,19.6330173 191.462656,19.8530184 C191.542657,20.5930221 191.642656,21.3680143 191.762656,22.1780184 C191.882657,22.9880224 192.002656,23.6830155 192.122656,24.2630184 C192.202657,23.583015 192.422654,22.9230216 192.782656,22.2830184 C193.142658,21.6430152 193.587654,21.063021 194.117656,20.5430184 C194.647659,20.0230158 195.247653,19.5830202 195.917656,19.2230184 C196.58766,18.8630166 197.272653,18.623019 197.972656,18.5030184 C198.272658,18.4630182 198.522655,18.4630182 198.722656,18.5030184 C198.922657,18.5430186 199.062656,18.6130179 199.142656,18.7130184 C199.222657,18.8130189 199.237656,18.9730173 199.187656,19.1930184 C199.137656,19.4130195 198.982658,19.6130175 198.722656,19.7930184 L198.722656,19.7930184 Z M208.772656,20.3330184 C208.852657,20.3130183 208.972655,20.2980184 209.132656,20.2880184 C209.292657,20.2780183 209.447655,20.2880182 209.597656,20.3180184 C209.747657,20.3480185 209.877656,20.398018 209.987656,20.4680184 C210.097657,20.5380187 210.162656,20.6230179 210.182656,20.7230184 C210.222656,20.9630196 210.187657,21.1780174 210.077656,21.3680184 C209.967656,21.5580193 209.772658,21.7230177 209.492656,21.8630184 C208.732652,22.2230202 207.94266,22.6280161 207.122656,23.0780184 C206.302652,23.5280206 205.602659,23.9330166 205.022656,24.2930184 C205.382658,24.5330196 205.797654,24.8030169 206.267656,25.1030184 C206.737659,25.4030199 207.222654,25.7180167 207.722656,26.0480184 C208.222659,26.37802 208.722654,26.7280165 209.222656,27.0980184 C209.722659,27.4680202 210.192654,27.8330166 210.632656,28.1930184 C211.032658,28.5330201 211.102658,28.843017 210.842656,29.1230184 C210.722656,29.2630191 210.527658,29.3630181 210.257656,29.4230184 C209.987655,29.4830187 209.732657,29.453019 209.492656,29.3330184 C209.052654,29.1130173 208.572659,28.8480199 208.052656,28.5380184 C207.532654,28.2280168 207.002659,27.90802 206.462656,27.5780184 C205.922654,27.2480167 205.397659,26.91802 204.887656,26.5880184 C204.377654,26.2580167 203.912658,25.9530198 203.492656,25.6730184 C203.572657,26.3730219 203.647656,27.0730149 203.717656,27.7730184 C203.787657,28.4730219 203.852656,29.1730149 203.912656,29.8730184 C204.032657,30.2530203 204.022657,30.5630172 203.882656,30.8030184 C203.742656,31.0430196 203.512658,31.1530185 203.192656,31.1330184 C202.852655,31.0730181 202.602657,30.9380194 202.442656,30.7280184 C202.282655,30.5180173 202.162657,30.2430201 202.082656,29.9030184 C201.962656,29.0830143 201.827657,28.113024 201.677656,26.9930184 C201.527655,25.8730128 201.372657,24.7130244 201.212656,23.5130184 C201.052655,22.3130124 200.897657,21.1430241 200.747656,20.0030184 C200.597655,18.8630127 200.462657,17.8530228 200.342656,16.9730184 C200.302656,16.693017 200.277656,16.38802 200.267656,16.0580184 C200.257656,15.7280167 200.362655,15.5130189 200.582656,15.4130184 C200.882658,15.2930178 201.192655,15.3580171 201.512656,15.6080184 C201.832658,15.8580196 202.072655,16.2330159 202.232656,16.7330184 C202.392657,17.653023 202.552655,18.653013 202.712656,19.7330184 C202.872657,20.8130238 203.032655,21.9530124 203.192656,23.1530184 C203.592658,22.9130172 204.057654,22.6480198 204.587656,22.3580184 C205.117659,22.0680169 205.647654,21.7880197 206.177656,21.5180184 C206.707659,21.248017 207.202654,21.0030195 207.662656,20.7830184 C208.122659,20.5630173 208.492655,20.4130188 208.772656,20.3330184 L208.772656,20.3330184 Z M218.312656,21.1730184 C218.272656,20.9530173 218.232656,20.7430194 218.192656,20.5430184 C218.152656,20.3430174 218.052657,20.2130187 217.892656,20.1530184 C217.552655,20.0530179 217.192658,20.043018 216.812656,20.1230184 C216.432654,20.2030188 216.082658,20.3280175 215.762656,20.4980184 C215.442655,20.6680192 215.172657,20.8580173 214.952656,21.0680184 C214.732655,21.2780194 214.612656,21.4630176 214.592656,21.6230184 C214.532656,21.9230199 214.612655,22.213017 214.832656,22.4930184 C215.052657,22.7730198 215.372654,23.053017 215.792656,23.3330184 C216.49266,23.7530205 217.222652,24.1830162 217.982656,24.6230184 C218.74266,25.0630206 219.382654,25.5130161 219.902656,25.9730184 C220.422659,26.4330207 220.777655,26.9380156 220.967656,27.4880184 C221.157657,28.0380211 221.112658,28.6630149 220.832656,29.3630184 C220.612655,29.9030211 220.202659,30.3430167 219.602656,30.6830184 C219.002653,31.0230201 218.34266,31.2880174 217.622656,31.4780184 C216.902653,31.6680193 216.18266,31.798018 215.462656,31.8680184 C214.742653,31.9380187 214.132659,31.9730184 213.632656,31.9730184 C213.512656,31.9730184 213.367657,31.9280188 213.197656,31.8380184 C213.027655,31.7480179 212.867657,31.643019 212.717656,31.5230184 C212.567656,31.4030178 212.437657,31.278019 212.327656,31.1480184 C212.217656,31.0180177 212.162656,30.9030189 212.162656,30.8030184 C212.162656,30.4430166 212.322655,30.1930191 212.642656,30.0530184 C212.962658,29.9130177 213.292655,29.8430184 213.632656,29.8430184 C214.112659,29.8430184 214.627653,29.8180186 215.177656,29.7680184 C215.727659,29.7180181 216.252654,29.6380189 216.752656,29.5280184 C217.252659,29.4180178 217.702654,29.2730193 218.102656,29.0930184 C218.502658,28.9130175 218.782655,28.6830198 218.942656,28.4030184 C219.082657,28.1630172 218.997658,27.87802 218.687656,27.5480184 C218.377655,27.2180167 217.967659,26.8730202 217.457656,26.5130184 C216.947654,26.1530166 216.397659,25.8030201 215.807656,25.4630184 C215.217653,25.1230167 214.712658,24.8130198 214.292656,24.5330184 C213.872654,24.253017 213.512658,23.9180203 213.212656,23.5280184 C212.912655,23.1380164 212.722657,22.6530213 212.642656,22.0730184 C212.622656,21.5530158 212.732655,21.0530208 212.972656,20.5730184 C213.212657,20.093016 213.527654,19.6680202 213.917656,19.2980184 C214.307658,18.9280165 214.752654,18.6330195 215.252656,18.4130184 C215.752659,18.1930173 216.252654,18.0830184 216.752656,18.0830184 C217.612661,18.1230186 218.322653,18.3580162 218.882656,18.7880184 C219.442659,19.2180205 219.772656,19.8530142 219.872656,20.6930184 C219.872656,20.9730198 219.827657,21.2030175 219.737656,21.3830184 C219.647656,21.5630193 219.492657,21.6730182 219.272656,21.7130184 C218.992655,21.7530186 218.767657,21.7180189 218.597656,21.6080184 C218.427655,21.4980178 218.332656,21.3530193 218.312656,21.1730184 L218.312656,21.1730184 Z M227.612656,14.4230184 C227.432655,15.3030228 227.247657,16.1730141 227.057656,17.0330184 C226.867655,17.8930227 226.692657,18.7530141 226.532656,19.6130184 C226.372655,20.4730227 226.252657,21.3330141 226.172656,22.1930184 C226.092656,23.0530227 226.082656,23.9130141 226.142656,24.7730184 C226.182656,24.9930195 226.147657,25.2030174 226.037656,25.4030184 C225.927656,25.6030194 225.802657,25.7330181 225.662656,25.7930184 C225.222654,25.9530192 224.902657,25.8430203 224.702656,25.4630184 C224.462655,24.4430133 224.337656,23.4330234 224.327656,22.4330184 C224.317656,21.4330134 224.387655,20.4430233 224.537656,19.4630184 C224.687657,18.4830135 224.887655,17.5080232 225.137656,16.5380184 C225.387657,15.5680135 225.642655,14.6030232 225.902656,13.6430184 C226.002657,13.2430164 226.162655,13.0230186 226.382656,12.9830184 C226.602657,12.9430182 226.812655,12.963018 227.012656,13.0430184 C227.312658,13.1430189 227.502656,13.3430169 227.582656,13.6430184 C227.662657,13.9430199 227.672657,14.2030173 227.612656,14.4230184 L227.612656,14.4230184 Z M226.412656,30.5630184 C226.412656,30.7830195 226.387656,31.0780165 226.337656,31.4480184 C226.287656,31.8180202 226.207657,32.1630168 226.097656,32.4830184 C225.987656,32.80302 225.837657,33.0630174 225.647656,33.2630184 C225.457655,33.4630194 225.222658,33.503019 224.942656,33.3830184 C224.782655,33.2830179 224.622657,33.0930198 224.462656,32.8130184 C224.302655,32.533017 224.232656,32.2730196 224.252656,32.0330184 C224.292656,31.553016 224.392655,31.0830207 224.552656,30.6230184 C224.712657,30.1630161 224.922655,29.8830189 225.182656,29.7830184 C225.302657,29.7430182 225.437655,29.7430182 225.587656,29.7830184 C225.737657,29.8230186 225.872656,29.8880179 225.992656,29.9780184 C226.112657,30.0680188 226.212656,30.1680178 226.292656,30.2780184 C226.372657,30.3880189 226.412656,30.483018 226.412656,30.5630184 L226.412656,30.5630184 Z" id="See-how-it-works!" sketch:type="MSShapeGroup" transform="translate(135.497656, 23.428018) rotate(-356.000000) translate(-135.497656, -23.428018) "></path>
            <g id="&lt;-+-)" transform="translate(18.907980, 16.185203) scale(-1, 1) rotate(-194.000000) translate(-18.907980, -16.185203) translate(3.407980, 3.685203)" sketch:type="MSShapeGroup">
                <path d="M14.8730061,22.3470709 C13.9210014,21.3950662 13.1220093,20.5847409 12.4760061,19.9160709 C11.8300029,19.2474009 11.218009,18.607074 10.6400061,17.9950709 C10.0620032,17.3830679 9.45567595,16.7484075 8.82100611,16.0910709 C8.18633627,15.4337343 7.40434409,14.6517421 6.47500611,13.7450709 C6.20300475,13.4730696 5.96500713,13.2464052 5.76100611,13.0650709 C5.55700509,12.8837367 5.46633933,12.6684055 5.48900611,12.4190709 C5.53433967,12.0790692 5.67033831,11.835405 5.89700611,11.6880709 C6.12367391,11.5407369 6.33900509,11.3877384 6.54300611,11.2290709 C6.86034103,10.9797363 7.25133712,10.6000735 7.71600611,10.0900709 C8.1806751,9.58006838 8.67933678,9.01907399 9.21200611,8.40707093 C9.74467544,7.79506787 10.28867,7.15474094 10.8440061,6.48607093 C11.3993422,5.81740092 11.9206703,5.19974043 12.4080061,4.63307093 C12.8953419,4.06640143 13.3260042,3.58473958 13.7000061,3.18807093 C14.074008,2.79140228 14.3516719,2.54773805 14.5330061,2.45707093 C14.7143404,2.36640381 14.8956719,2.34940398 15.0770061,2.40607093 C15.2583404,2.46273788 15.394339,2.52507059 15.4850061,2.59307093 C15.6210068,2.70640483 15.7400056,2.87073652 15.8420061,3.08607093 C15.9440066,3.30140534 15.9043404,3.57906923 15.7230061,3.91907093 C15.6550058,4.05507161 15.5246737,4.24206974 15.3320061,4.48007093 C15.1393385,4.71807212 14.9240073,4.98440279 14.6860061,5.27907093 C14.4480049,5.57373907 14.1986741,5.8740694 13.9380061,6.18007093 C13.6773381,6.48607246 13.4450071,6.75240313 13.2410061,6.97907093 C12.4476688,7.86307535 11.6260104,8.80373261 10.7760061,9.80107093 C9.92600186,10.7984092 9.10434341,11.7277333 8.31100611,12.5890709 C8.87767561,13.1784072 9.50666932,13.8244007 10.1980061,14.5270709 C10.8893429,15.2297411 11.5976692,15.943734 12.3230061,16.6690709 C13.0483431,17.3944079 13.7623359,18.1254006 14.4650061,18.8620709 C15.1676763,19.5987413 15.8250031,20.2844011 16.4370061,20.9190709 C16.5730068,21.0777384 16.6693392,21.2534033 16.7260061,21.4460709 C16.7826731,21.6387386 16.7090071,21.8484031 16.5050061,22.0750709 C16.2330048,22.3697391 15.9440076,22.5397374 15.6380061,22.5850709 C15.3320046,22.6304045 15.0770071,22.5510719 14.8730061,22.3470709 L14.8730061,22.3470709 Z" id="&lt;" transform="translate(11.896306, 12.734225) rotate(-324.000000) translate(-11.896306, -12.734225) "></path>
                <path d="M20.7812198,4.20453417 C19.7838815,5.24720605 18.9452232,6.53919313 18.2652198,8.08053417 C17.5852164,9.62187521 17.1432208,11.2198592 16.9392198,12.8745342 C16.7578856,14.3705417 16.8145517,15.8381936 17.1092198,17.2775342 C17.4038879,18.7168747 18.027215,19.991862 18.9792198,21.1025342 C19.2285544,21.4198691 19.4722186,21.697533 19.7102198,21.9355342 C19.948221,22.1735354 20.1408857,22.4058664 20.2882198,22.6325342 C20.4355539,22.859202 20.520553,23.091533 20.5432198,23.3295342 C20.5658866,23.5675354 20.4978873,23.8225328 20.3392198,24.0945342 C20.2485527,24.2532016 20.1295539,24.349534 19.9822198,24.3835342 C19.8348857,24.4175343 19.6818873,24.423201 19.5232198,24.4005342 C19.3645523,24.3778674 19.2115539,24.3325345 19.0642198,24.2645342 C18.9168857,24.1965338 18.8092201,24.1398677 18.7412198,24.0945342 C18.0158828,23.595865 17.3755559,22.9668713 16.8202198,22.2075342 C16.2648837,21.448197 15.8058883,20.6038722 15.4432198,19.6745342 C15.0805513,18.7451962 14.8142207,17.7648727 14.6442198,16.7335342 C14.474219,15.7021957 14.4232195,14.6538728 14.4912198,13.5885342 C14.5592201,12.5005287 14.7178852,11.4295394 14.9672198,10.3755342 C15.2165544,9.3215289 15.5452178,8.32987215 15.9532198,7.40053417 C16.3612218,6.47119619 16.8428837,5.6268713 17.3982198,4.86753417 C17.9535559,4.10819704 18.5598832,3.49053655 19.2172198,3.01453417 C19.3532205,2.90120027 19.5685517,2.85586739 19.8632198,2.87853417 C20.1578879,2.90120095 20.3958856,2.98053349 20.5772198,3.11653417 C20.7812208,3.27520163 20.894553,3.47353298 20.9172198,3.71153417 C20.9398866,3.94953536 20.8945537,4.11386705 20.7812198,4.20453417 L20.7812198,4.20453417 Z" id="(" transform="translate(18.335648, 13.976701) scale(1, -1) rotate(-284.000000) translate(-18.335648, -13.976701) "></path>
            </g>
        </g>
    </g>
</svg>