<?xml version="1.0" encoding="utf-8"?>
<!-- Generator: Adobe Illustrator 16.0.4, SVG Export Plug-In . SVG Version: 6.00 Build 0)  -->
<!DOCTYPE svg PUBLIC "-//W3C//DTD SVG 1.1//EN" "http://www.w3.org/Graphics/SVG/1.1/DTD/svg11.dtd">
<svg version="1.1" id="Layer_1" xmlns="http://www.w3.org/2000/svg" xmlns:xlink="http://www.w3.org/1999/xlink" x="0px" y="0px"
	 width="140px" height="70.667px" viewBox="0 0 140 70.667" enable-background="new 0 0 140 70.667" xml:space="preserve">
<g>
	<path fill="#FFFFFF" d="M46.575,24.176V58.9c0,0.911-0.683,1.594-1.594,1.594c-0.91,0-1.594-0.683-1.594-1.594v-7.287
		c-3.188,5.807-9.107,9.905-15.939,9.905c-10.701,0-18.329-9.563-18.329-19.81c0-10.246,7.628-19.81,18.329-19.81
		c6.832,0,12.752,4.099,15.939,9.905v-7.628c0-0.797,0.684-1.594,1.594-1.594C45.892,22.582,46.575,23.379,46.575,24.176z
		 M42.59,41.709c0-8.539-6.148-16.622-15.143-16.622c-8.879,0-15.141,8.083-15.141,16.622s6.262,16.622,15.141,16.622
		C36.442,58.331,42.59,50.248,42.59,41.709z"/>
	<path fill="#FFFFFF" d="M75.489,22.924c-0.91,0-1.594,0.797-1.594,1.594v34.61c0,0.797,0.684,1.594,1.594,1.594
		c0.797,0,1.594-0.797,1.594-1.594v-34.61C77.083,23.721,76.286,22.924,75.489,22.924z"/>
	<path fill="#FFFFFF" d="M75.489,9.148c-1.48,0-2.619,1.139-2.619,2.619c0,1.366,1.139,2.505,2.619,2.505
		c1.365,0,2.618-1.139,2.618-2.505C78.107,10.287,76.854,9.148,75.489,9.148z"/>
	<path fill="#FFFFFF" d="M123.304,24.176c0,1.025-0.569,1.594-1.479,1.708c-9.336,1.366-13.549,8.994-13.549,17.875v15.256
		c0,0.911-0.683,1.594-1.594,1.594c-0.91,0-1.594-0.683-1.594-1.594V24.29c0-0.911,0.684-1.594,1.594-1.594
		c0.911,0,1.594,0.683,1.594,1.594v7.059c2.619-4.44,7.855-8.652,13.32-8.652C122.393,22.696,123.304,23.266,123.304,24.176z"/>
</g>
</svg>
